<?xml version='1.0' encoding='utf-8'?>
<!DOCTYPE svg PUBLIC '-//W3C//DTD SVG 1.1//EN' 'http://www.w3.org/Graphics/SVG/1.1/DTD/svg11.dtd'>
<svg version="1.1" xmlns="http://www.w3.org/2000/svg" viewBox="0 0 512 512" xmlns:xlink="http://www.w3.org/1999/xlink" enable-background="new 0 0 512 512">
  <g>
    <g>
      <g>
        <path d="M407.8,501H104.2c-11.3,0-20.4-9.1-20.4-20.4V31.4c0-11.3,9.1-20.4,20.4-20.4h303.7c11.3,0,20.4,9.1,20.4,20.4v449.2     C428.3,491.9,419.1,501,407.8,501z M124.6,460.2h262.8V51.8H124.6V460.2z"/>
      </g>
      <g>
        <path d="m256,429.5c-53.5,0-97-43.5-97-97s43.5-97 97-97c53.5,0 97,43.5 97,97s-43.5,97-97,97zm0-153.1c-31,0-56.1,25.2-56.1,56.1s25.2,56.1 56.1,56.1c31,0 56.1-25.2 56.1-56.1s-25.1-56.1-56.1-56.1z"/>
      </g>
      <g>
        <path d="m256,189.6c-31,0-56.1-25.2-56.1-56.1s25.1-56.1 56.1-56.1c31,0 56.1,25.2 56.1,56.1s-25.1,56.1-56.1,56.1zm0-71.4c-8.4,0-15.3,6.9-15.3,15.3 0,8.4 6.9,15.3 15.3,15.3 8.4,0 15.3-6.9 15.3-15.3 0-8.4-6.9-15.3-15.3-15.3z"/>
      </g>
    </g>
  </g>
</svg>
